<svg width="120" height="120" viewBox="0 0 120 120" fill="none" xmlns="http://www.w3.org/2000/svg">
<g clip-path="url(#clip0_2877_326376)">
<path d="M96 0H24C10.7452 0 0 10.7452 0 24V96C0 109.255 10.7452 120 24 120H96C109.255 120 120 109.255 120 96V24C120 10.7452 109.255 0 96 0Z" fill="#F6B3E5"/>
<path d="M87.3861 17.0156H31.2432C21.2767 17.0156 13.1973 25.0951 13.1973 35.0615V91.2044C13.1973 101.171 21.2767 109.25 31.2432 109.25H87.3861C97.3526 109.25 105.432 101.171 105.432 91.2044V35.0615C105.432 25.0951 97.3526 17.0156 87.3861 17.0156Z" fill="white" stroke="#00565E" stroke-width="2.5" stroke-linejoin="round"/>
<path d="M83.0039 41.6689C86.8792 41.6013 89.9659 38.4049 89.8982 34.5296C89.8306 30.6544 86.6342 27.5677 82.759 27.6353C78.8837 27.703 75.797 30.8993 75.8647 34.7746C75.9323 38.6499 79.1287 41.7366 83.0039 41.6689Z" fill="#00565E"/>
<path d="M59.4375 70.1611C63.3128 70.0935 66.3995 66.8971 66.3318 63.0218C66.2642 59.1466 63.0678 56.0599 59.1926 56.1275C55.3173 56.1952 52.2306 59.3915 52.2983 63.2668C52.3659 67.1421 55.5623 70.2287 59.4375 70.1611Z" fill="#00565E"/>
<path d="M35.8711 98.6377C39.7464 98.57 42.8331 95.3737 42.7654 91.4984C42.6978 87.6231 39.5014 84.5364 35.6262 84.6041C31.7509 84.6717 28.6642 87.8681 28.7319 91.7434C28.7995 95.6186 31.9959 98.7053 35.8711 98.6377Z" fill="#00565E"/>
<path d="M94.9348 3.21761L96.1625 13.5131L104.466 19.7254L106.467 21.2232L103.985 21.5185L93.6886 22.746L87.4773 31.0493L85.9804 33.0514L85.6841 30.5688L84.4557 20.2721L76.1534 14.0611L74.1513 12.5641L76.6339 12.2679L86.9296 11.0392L93.1416 2.73713L94.6395 0.735301L94.9348 3.21761Z" fill="white"/>
<path d="M94.9348 3.21761L96.1625 13.5131L104.466 19.7254L106.467 21.2232L103.985 21.5185L93.6886 22.746L87.4773 31.0493L85.9804 33.0514L85.6841 30.5688L84.4557 20.2721L76.1534 14.0611L74.1513 12.5641L76.6339 12.2679L86.9296 11.0392L93.1416 2.73713L94.6395 0.735301L94.9348 3.21761Z" fill="#C049DE"/>
<path d="M94.9348 3.21761L96.1625 13.5131L104.466 19.7254L106.467 21.2232L103.985 21.5185L93.6886 22.746L87.4773 31.0493L85.9804 33.0514L85.6841 30.5688L84.4557 20.2721L76.1534 14.0611L74.1513 12.5641L76.6339 12.2679L86.9296 11.0392L93.1416 2.73713L94.6395 0.735301L94.9348 3.21761Z" stroke="#00565E" stroke-width="2"/>
<path d="M16.0652 59.2176L14.8375 69.5131L6.53445 75.7254L4.53263 77.2232L7.01494 77.5185L17.3114 78.746L23.5227 87.0493L25.0196 89.0514L25.3159 86.5688L26.5443 76.2721L34.8466 70.0611L36.8487 68.5641L34.3661 68.2679L24.0704 67.0392L17.8584 58.7371L16.3605 56.7353L16.0652 59.2176Z" fill="white"/>
<path d="M16.0652 59.2176L14.8375 69.5131L6.53445 75.7254L4.53263 77.2232L7.01494 77.5185L17.3114 78.746L23.5227 87.0493L25.0196 89.0514L25.3159 86.5688L26.5443 76.2721L34.8466 70.0611L36.8487 68.5641L34.3661 68.2679L24.0704 67.0392L17.8584 58.7371L16.3605 56.7353L16.0652 59.2176Z" fill="#C049DE"/>
<path d="M16.0652 59.2176L14.8375 69.5131L6.53445 75.7254L4.53263 77.2232L7.01494 77.5185L17.3114 78.746L23.5227 87.0493L25.0196 89.0514L25.3159 86.5688L26.5443 76.2721L34.8466 70.0611L36.8487 68.5641L34.3661 68.2679L24.0704 67.0392L17.8584 58.7371L16.3605 56.7353L16.0652 59.2176Z" stroke="#00565E" stroke-width="2"/>
</g>
<defs>
<clipPath id="clip0_2877_326376">
<rect width="120" height="120" fill="white"/>
</clipPath>
</defs>
</svg>
