<svg width="255" height="207" viewBox="0 0 255 207" fill="none" xmlns="http://www.w3.org/2000/svg">
<path d="M154.591 116H100.775C90.8674 116 82.8359 124.032 82.8359 133.94V187.76C82.8359 197.668 90.8674 205.7 100.775 205.7H154.591C164.498 205.7 172.529 197.668 172.529 187.76V133.94C172.529 124.032 164.498 116 154.591 116Z" stroke="#00565E" stroke-width="2.5" stroke-linejoin="round"/>
<path d="M150.366 123.305H104.623C96.2017 123.305 89.375 129.998 89.375 138.255V183.105C89.375 191.361 96.2017 198.055 104.623 198.055H150.366C158.788 198.055 165.614 191.361 165.614 183.105V138.255C165.614 129.998 158.788 123.305 150.366 123.305Z" fill="#00565E"/>
<path d="M105.257 144.241C108.559 144.241 111.237 141.563 111.237 138.261C111.237 134.958 108.559 132.281 105.257 132.281C101.954 132.281 99.2773 134.958 99.2773 138.261C99.2773 141.563 101.954 144.241 105.257 144.241Z" fill="#F5F1ED"/>
<path d="M150.105 144.241C153.407 144.241 156.084 141.563 156.084 138.261C156.084 134.958 153.407 132.281 150.105 132.281C146.802 132.281 144.125 134.958 144.125 138.261C144.125 141.563 146.802 144.241 150.105 144.241Z" fill="#F5F1ED"/>
<path d="M105.257 166.655C108.559 166.655 111.237 163.978 111.237 160.675C111.237 157.373 108.559 154.695 105.257 154.695C101.954 154.695 99.2773 157.373 99.2773 160.675C99.2773 163.978 101.954 166.655 105.257 166.655Z" fill="#F5F1ED"/>
<path d="M150.105 166.655C153.407 166.655 156.084 163.978 156.084 160.675C156.084 157.373 153.407 154.695 150.105 154.695C146.802 154.695 144.125 157.373 144.125 160.675C144.125 163.978 146.802 166.655 150.105 166.655Z" fill="#F5F1ED"/>
<path d="M105.257 189.084C108.559 189.084 111.237 186.407 111.237 183.105C111.237 179.802 108.559 177.125 105.257 177.125C101.954 177.125 99.2773 179.802 99.2773 183.105C99.2773 186.407 101.954 189.084 105.257 189.084Z" fill="#F5F1ED"/>
<path d="M150.105 189.084C153.407 189.084 156.084 186.407 156.084 183.105C156.084 179.802 153.407 177.125 150.105 177.125C146.802 177.125 144.125 179.802 144.125 183.105C144.125 186.407 146.802 189.084 150.105 189.084Z" fill="#F5F1ED"/>
<path d="M53.1682 19.3L12.9328 30.8382C5.79021 32.8864 1.6603 40.3375 3.70838 47.4805L15.2455 87.7184C17.2936 94.8615 24.7441 98.9916 31.8867 96.9433L72.1221 85.4052C79.2647 83.3569 83.3946 75.9059 81.3465 68.7628L69.8094 28.5249C67.7613 21.3819 60.3108 17.2517 53.1682 19.3Z" fill="white" stroke="#00565E" stroke-width="2.5" stroke-linejoin="round"/>
<path d="M55.4449 38.0857C58.2226 37.2891 59.8287 34.3916 59.0322 31.6138C58.2358 28.836 55.3384 27.2299 52.5607 28.0265C49.783 28.823 48.1769 31.7206 48.9734 34.4983C49.7698 37.2761 52.6672 38.8822 55.4449 38.0857Z" fill="#00565E"/>
<path d="M43.9721 63.1559C46.7498 62.3594 48.3559 59.4618 47.5595 56.684C46.7631 53.9063 43.8657 52.3002 41.088 53.0967C38.3103 53.8933 36.7042 56.7909 37.5007 59.5687C38.2971 62.3464 41.1945 63.9525 43.9721 63.1559Z" fill="#00565E"/>
<path d="M32.4995 88.2106C35.2772 87.4141 36.8833 84.5165 36.0869 81.7387C35.2904 78.9609 32.393 77.3549 29.6154 78.1514C26.8377 78.948 25.2316 81.8456 26.028 84.6234C26.8244 87.4011 29.7218 89.0072 32.4995 88.2106Z" fill="#00565E"/>
<path d="M242.004 26.9181L201.574 16.084C194.396 14.1607 187.019 18.4202 185.096 25.5979L174.263 66.0311C172.34 73.2088 176.599 80.5866 183.776 82.5099L224.207 93.344C231.384 95.2673 238.761 91.0078 240.685 83.8301L251.518 43.3969C253.441 36.2192 249.182 28.8414 242.004 26.9181Z" fill="white" stroke="#00565E" stroke-width="2.5" stroke-linejoin="round"/>
<path d="M199.232 36.3529C202.023 37.1008 204.892 35.4444 205.64 32.6532C206.388 29.8619 204.732 26.9928 201.941 26.2449C199.149 25.497 196.28 27.1534 195.533 29.9446C194.785 32.7359 196.441 35.6049 199.232 36.3529Z" fill="#00565E"/>
<path d="M211.541 59.7748C214.332 60.5228 217.201 58.8664 217.949 56.0751C218.697 53.2839 217.04 50.4148 214.249 49.6668C211.458 48.9188 208.589 50.5753 207.841 53.3665C207.093 56.1577 208.75 59.0268 211.541 59.7748Z" fill="#00565E"/>
<path d="M223.83 83.1811C226.621 83.929 229.49 82.2726 230.238 79.4814C230.986 76.6901 229.329 73.821 226.538 73.0731C223.747 72.3251 220.878 73.9815 220.13 76.7728C219.382 79.564 221.039 82.4331 223.83 83.1811Z" fill="#00565E"/>
<path d="M56.8496 8.00391L59.6797 15.0801L66.7568 17.9111L69.0781 18.8398L66.7568 19.7676L59.6807 22.5977L56.8496 29.6758L55.9209 31.9971L54.9932 29.6758L52.1611 22.5977L45.0859 19.7676L42.7646 18.8398L45.0859 17.9111L52.1621 15.0801L54.9932 8.00391L55.9209 5.68262L56.8496 8.00391Z" fill="white" stroke="#00565E" stroke-width="2"/>
<path d="M207.838 5.01172L210.668 12.0879L217.745 14.9189L220.066 15.8477L217.745 16.7754L210.669 19.6055L207.838 26.6836L206.909 29.0049L205.981 26.6836L203.149 19.6055L196.074 16.7754L193.753 15.8477L196.074 14.9189L203.15 12.0879L205.981 5.01172L206.909 2.69043L207.838 5.01172Z" fill="white" stroke="#00565E" stroke-width="2"/>
<path d="M128 102.735C125.238 102.735 123 100.496 123 97.7349V88.7347H114C111.239 88.7347 109 86.4961 109 83.7347C109 80.9732 111.239 78.7346 114 78.7346L123 78.7346V69.7345C123 66.973 125.238 64.7344 128 64.7344C130.761 64.7344 133 66.973 133 69.7345V78.7346H142C144.761 78.7346 147 80.9732 147 83.7347C147 86.4961 144.761 88.7347 142 88.7347H133V97.7349C133 100.496 130.761 102.735 128 102.735Z" fill="#49DE71" stroke="#00565E" stroke-width="2"/>
</svg>
