<svg width="120" height="120" viewBox="0 0 120 120" fill="none" xmlns="http://www.w3.org/2000/svg">
<g clip-path="url(#clip0_2993_328657)">
<path d="M96 -0.34375H24C10.7452 -0.34375 0 10.4014 0 23.6562V95.6562C0 108.911 10.7452 119.656 24 119.656H96C109.255 119.656 120 108.911 120 95.6562V23.6562C120 10.4014 109.255 -0.34375 96 -0.34375Z" fill="#6DAF57"/>
<path d="M73.0546 72.9467V47.0029H46.21V72.9467H73.0546Z" fill="#49DE71"/>
<path d="M73.0546 101.361H84.8833C93.7023 101.361 100.852 94.2121 100.852 85.3931V72.9467H73.0546V101.361Z" fill="#49DE71"/>
<path d="M46.21 101.361H73.0546V72.9467H46.21V101.361Z" fill="white"/>
<path d="M100.852 72.9467V47.0029H73.0546V72.9467H100.852Z" fill="white"/>
<path d="M46.21 19H35.1578C25.9526 19 18.4902 26.4623 18.4902 35.6676V47.0029H46.21V19Z" fill="white"/>
<path d="M18.4902 85.3931C18.4902 94.2121 25.6395 101.361 34.4585 101.361H46.21V72.9467H18.4902V85.3931Z" fill="#C0E0DF"/>
<path d="M18.4902 47.0029V72.9467H46.21V47.0029H18.4902Z" fill="#C0E0DF"/>
<path d="M73.0546 19H46.21V47.0029H73.0546V19Z" fill="#C0E0DF"/>
<path d="M100.852 35.6676C100.852 26.4623 93.3892 19 84.184 19H73.0546V47.0029H100.852V35.6676Z" fill="#C0E0DF"/>
<path d="M87.7969 99.4961H31.5449C25.3652 99.4961 20.3555 94.4864 20.3555 88.3066V32.0547C20.3555 25.8749 25.3652 20.8652 31.5449 20.8652H87.7969C93.9766 20.8652 98.9863 25.8749 98.9863 32.0547V88.3066C98.9863 94.4864 93.9766 99.4961 87.7969 99.4961Z" stroke="black" stroke-width="3.72981"/>
<path d="M53.6953 80.1758L65.4514 91.9058M65.8172 80.1758L53.6953 92.2977" stroke="black" stroke-width="2.33113" stroke-linecap="round" stroke-linejoin="round"/>
<path d="M60.8053 27.7983V38.7935H59.4159V29.5332L56.6145 30.5546V29.3003L60.5875 27.7983H60.8053Z" fill="black"/>
<path d="M89.8024 37.6519V38.7935H82.645V37.7946L86.2274 33.8066C86.668 33.3159 87.0085 32.9003 87.2488 32.5598C87.4942 32.2144 87.6644 31.9064 87.7595 31.6361C87.8597 31.3607 87.9098 31.0803 87.9098 30.7949C87.9098 30.4344 87.8346 30.109 87.6844 29.8186C87.5392 29.5231 87.3239 29.2878 87.0385 29.1126C86.7532 28.9373 86.4077 28.8497 86.0021 28.8497C85.5164 28.8497 85.1109 28.9448 84.7854 29.1351C84.465 29.3204 84.2247 29.5807 84.0644 29.9162C83.9042 30.2517 83.8241 30.6372 83.8241 31.0728H82.4347C82.4347 30.4569 82.5699 29.8937 82.8402 29.383C83.1106 28.8722 83.5112 28.4667 84.0419 28.1663C84.5726 27.8608 85.226 27.7081 86.0021 27.7081C86.6931 27.7081 87.2839 27.8308 87.7746 28.0761C88.2652 28.3165 88.6408 28.6569 88.9011 29.0976C89.1665 29.5332 89.2992 30.0439 89.2992 30.6297C89.2992 30.9501 89.2441 31.2756 89.1339 31.606C89.0288 31.9315 88.8811 32.2569 88.6908 32.5824C88.5056 32.9078 88.2878 33.2283 88.0374 33.5437C87.7921 33.8591 87.5292 34.1696 87.2488 34.475L84.3198 37.6519H89.8024Z" fill="black"/>
<path d="M34.0319 53.9477V64.9429H32.6425V55.6826L29.8411 56.704V55.4498L33.8141 53.9477H34.0319Z" fill="black"/>
<path d="M31.9387 85.1332H32.9301C33.4157 85.1332 33.8163 85.0531 34.1317 84.8928C34.4522 84.7276 34.69 84.5048 34.8452 84.2244C35.0054 83.939 35.0856 83.6186 35.0856 83.2631C35.0856 82.8425 35.0155 82.4895 34.8753 82.2041C34.7351 81.9187 34.5248 81.7034 34.2444 81.5582C33.964 81.413 33.6085 81.3404 33.1779 81.3404C32.7874 81.3404 32.4419 81.418 32.1415 81.5733C31.8461 81.7235 31.6133 81.9388 31.443 82.2192C31.2778 82.4995 31.1952 82.83 31.1952 83.2105H29.8058C29.8058 82.6548 29.946 82.1491 30.2263 81.6934C30.5067 81.2378 30.8998 80.8748 31.4055 80.6044C31.9162 80.334 32.507 80.1989 33.1779 80.1989C33.8388 80.1989 34.4171 80.3165 34.9128 80.5518C35.4085 80.7822 35.794 81.1276 36.0694 81.5883C36.3448 82.0439 36.4825 82.6122 36.4825 83.2931C36.4825 83.5685 36.4174 83.8639 36.2872 84.1794C36.162 84.4898 35.9643 84.7802 35.6939 85.0506C35.4285 85.3209 35.0831 85.5437 34.6575 85.719C34.2319 85.8892 33.7212 85.9743 33.1253 85.9743H31.9387V85.1332ZM31.9387 86.2748V85.4411H33.1253C33.8213 85.4411 34.3971 85.5237 34.8527 85.6889C35.3084 85.8542 35.6664 86.0745 35.9267 86.3499C36.1921 86.6252 36.3773 86.9282 36.4825 87.2586C36.5926 87.5841 36.6477 87.9095 36.6477 88.235C36.6477 88.7457 36.5601 89.1988 36.3848 89.5943C36.2146 89.9899 35.9718 90.3254 35.6563 90.6007C35.3459 90.8761 34.9804 91.0839 34.5598 91.2241C34.1392 91.3643 33.6811 91.4344 33.1854 91.4344C32.7098 91.4344 32.2617 91.3668 31.8411 91.2316C31.4255 91.0964 31.0575 90.9012 30.737 90.6458C30.4166 90.3854 30.1663 90.0675 29.986 89.692C29.8058 89.3115 29.7156 88.8784 29.7156 88.3927H31.1051C31.1051 88.7732 31.1877 89.1062 31.3529 89.3916C31.5231 89.677 31.7635 89.8998 32.0739 90.06C32.3893 90.2152 32.7598 90.2928 33.1854 90.2928C33.611 90.2928 33.9765 90.2202 34.2819 90.075C34.5924 89.9248 34.8302 89.6995 34.9954 89.3991C35.1657 89.0987 35.2508 88.7206 35.2508 88.265C35.2508 87.8094 35.1557 87.4364 34.9654 87.146C34.7751 86.8506 34.5048 86.6328 34.1543 86.4926C33.8088 86.3474 33.4007 86.2748 32.9301 86.2748H31.9387Z" fill="black"/>
</g>
<defs>
<clipPath id="clip0_2993_328657">
<rect width="120" height="120" fill="white"/>
</clipPath>
</defs>
</svg>
