<svg width="257" height="221" viewBox="0 0 257 221" fill="none" xmlns="http://www.w3.org/2000/svg">
<path d="M255.291 135.315L205.383 105.933C201.903 103.331 199.429 99.5983 198.401 95.3733L188.928 55.1688C187.627 48.9785 181.501 45.0534 175.332 46.4564C169.324 47.8219 165.511 53.7337 166.743 59.7686L177.854 108.022L112.878 124.359C107.384 125.516 103.737 130.748 104.551 136.301C105.413 142.191 110.939 146.223 116.814 145.249C116.814 145.249 170.871 132.574 170.876 132.574C163.422 134.255 145.821 138.984 142.062 146.389C138.014 154.368 142.223 165.994 151.203 168.253C151.476 168.323 151.754 168.387 152.033 168.43C150.035 168.12 146.849 171.129 145.966 172.58C141.553 179.841 148.996 187.338 154.951 190.455C163.251 194.798 173.265 196.174 182.529 195.97L213.978 213.192L225.823 219.676" fill="white"/>
<path d="M199.753 39.3724C198.554 32.7965 192.262 28.4323 185.681 29.6157L155.533 34.2799C153.621 21.9582 139.58 18.258 139.58 18.258C136.534 7.51073 126.809 3.16255 118.193 1.47041C111.505 0.153104 104.608 0.308396 97.941 1.71673L0.5625 25.5353V102.967L83.5149 80.8835L88.1629 79.6894C90.2567 79.1485 92.3826 80.4337 92.8859 82.5382L103.071 125.367C104.249 130.32 109.379 134.379 114.477 134.379H115.157C123.43 134.379 128.63 127.792 126.718 119.744L119.355 88.7766C117.229 79.8232 122.659 70.8163 131.57 68.5244L190.307 53.4129C196.744 52.0688 200.942 45.8411 199.759 39.3724H199.753Z" fill="#00565E" stroke="#00565E" stroke-width="1.13137" stroke-linecap="round" stroke-linejoin="round"/>
<path d="M125.406 17.6414C125.406 17.6414 133.894 14.4016 139.773 16.9399" stroke="white" stroke-width="1.13137" stroke-linecap="round" stroke-linejoin="round"/>
<path d="M143.578 36.4328L156.762 34.0552" stroke="white" stroke-width="1.13137" stroke-linecap="round" stroke-linejoin="round"/>
<path d="M155.073 147.328L182.099 153.721C187.395 154.974 190.79 160.147 189.826 165.507C188.804 171.189 183.299 174.905 177.644 173.727L152.305 168.437" stroke="#00565E" stroke-width="1.13137" stroke-linecap="round" stroke-linejoin="round"/>
<path d="M179.875 173.946L184.866 174.932C190.022 175.949 193.476 180.833 192.711 186.032L192.486 187.548C191.779 192.362 187.661 195.939 182.799 195.971" fill="white"/>
<path d="M179.875 173.946L184.866 174.932C190.022 175.949 193.476 180.833 192.711 186.032L192.486 187.548C191.779 192.362 187.661 195.939 182.799 195.971" stroke="#00565E" stroke-width="1.13137" stroke-linecap="round" stroke-linejoin="round"/>
<path d="M212.23 174.926C212.23 174.926 169.707 161.394 178.12 108.021L113.143 124.359C107.649 125.516 104.003 130.748 104.817 136.301C105.679 142.191 111.205 146.223 117.079 145.249C117.079 145.249 171.137 132.574 171.142 132.574C163.688 134.255 146.087 138.983 142.328 146.389C138.279 154.368 142.488 165.994 151.468 168.253C151.741 168.323 152.02 168.387 152.298 168.43C150.301 168.119 147.115 171.129 146.231 172.58C141.819 179.841 149.262 187.338 155.217 190.455C163.517 194.798 173.53 196.174 182.794 195.97L214.244 213.192L226.089 219.676" stroke="#00565E" stroke-width="1.13137" stroke-linecap="round" stroke-linejoin="round"/>
<path d="M178.124 108.022L167.012 59.7686C165.781 53.7337 169.593 47.8165 175.601 46.4564C181.77 45.0534 187.891 48.9785 189.198 55.1688L198.67 95.3733C199.698 99.5983 202.172 103.331 205.653 105.933L255.561 135.315" stroke="#00565E" stroke-width="1.13137" stroke-linecap="round" stroke-linejoin="round"/>
<path d="M163.709 104.243L166.917 99.0539L163.398 84.2529" stroke="#00565E" stroke-width="1.13137" stroke-linecap="round" stroke-linejoin="round"/>
<path d="M145.407 92.9517L130.617 96.4697L134.135 111.26L148.925 107.742L145.407 92.9517Z" fill="white" stroke="#00565E" stroke-width="1.13137" stroke-linecap="round" stroke-linejoin="round"/>
<path d="M130.617 96.4829L133.782 91.3422L148.61 87.7651L145.407 92.9701" stroke="#00565E" stroke-width="1.13137" stroke-linecap="round" stroke-linejoin="round"/>
<path d="M148.92 107.76L152.128 102.571L148.609 87.7651" stroke="#00565E" stroke-width="1.13137" stroke-linecap="round" stroke-linejoin="round"/>
<path d="M141.891 78.1602L127.102 81.6782L130.62 96.4681L145.409 92.9501L141.891 78.1602Z" fill="#49DE71" stroke="#00565E" stroke-width="1.13137" stroke-linecap="round" stroke-linejoin="round"/>
<path d="M127.102 81.6929L130.266 76.5522L145.094 72.9751L141.892 78.1801" stroke="#00565E" stroke-width="1.13137" stroke-linecap="round" stroke-linejoin="round"/>
<path d="M156.68 74.6461L141.891 78.1641L145.409 92.954L160.198 89.436L156.68 74.6461Z" fill="white" stroke="#00565E" stroke-width="1.13137" stroke-linecap="round" stroke-linejoin="round"/>
<path d="M141.891 78.1802L145.055 73.0395L159.883 69.4624L156.681 74.662" stroke="#00565E" stroke-width="1.13137" stroke-linecap="round" stroke-linejoin="round"/>
<path d="M160.199 89.4522L163.401 84.2633L159.883 69.4624" stroke="#00565E" stroke-width="1.13137" stroke-linecap="round" stroke-linejoin="round"/>
<path d="M160.196 89.4376L145.406 92.9556L148.924 107.745L163.714 104.227L160.196 89.4376Z" fill="#49DE71" stroke="#00565E" stroke-width="1.13137" stroke-linecap="round" stroke-linejoin="round"/>
<path d="M125.981 121.131L113.145 124.36C110.018 125.019 107.49 127 106.039 129.608" stroke="white" stroke-width="1.13137" stroke-linecap="round" stroke-linejoin="round"/>
<path d="M166.824 58.5591C166.294 52.9632 169.989 47.7315 175.595 46.457C180.993 45.2307 186.353 48.0795 188.484 52.9578" stroke="white" stroke-width="1.13137" stroke-linecap="round" stroke-linejoin="round"/>
</svg>
