<svg width="241" height="209" viewBox="0 0 241 209" fill="none" xmlns="http://www.w3.org/2000/svg">
<path d="M136.334 187.562V207.934L232.756 175.157V12.9922L213.083 17.9053" stroke="#00565E" stroke-width="1.37009" stroke-linecap="round" stroke-linejoin="round"/>
<path d="M28.3613 0.6875L121.345 24.2619V192.597L28.3613 161.434V70.2543V0.6875Z" fill="white" stroke="#00565E" stroke-width="1.37009" stroke-linecap="round" stroke-linejoin="round"/>
<path d="M29.1816 35.3359L121.159 58.3286" stroke="#00565E" stroke-width="1.37009" stroke-linecap="round" stroke-linejoin="round"/>
<path d="M29.1816 67.9141L121.351 90.0806" stroke="#00565E" stroke-width="1.37009" stroke-linecap="round" stroke-linejoin="round"/>
<path d="M28.498 101.938L121.355 125.634" stroke="#00565E" stroke-width="1.37009" stroke-linecap="round" stroke-linejoin="round"/>
<path d="M28.498 131.547L121.355 158.894" stroke="#00565E" stroke-width="1.37009" stroke-linecap="round" stroke-linejoin="round"/>
<path d="M43.9937 77.9018L33.0089 64.1585C31.815 62.6611 30.1628 61.7658 28.4252 61.4781L28.4785 61.4461L39.1489 62.7783C41.041 63.0128 42.8265 61.8564 43.3861 60.0339C44.1109 57.6572 42.48 55.2166 40.007 54.9821L22.8236 53.3461C19.9561 53.2609 16.9554 55.4724 16.4118 58.2914L14.8235 70.0949L4.12119 79.8841C1.00856 82.7351 -0.100044 87.1687 1.30703 91.1441L27.8869 142.462L27.9775 95.6524L22.0508 90.5899L26.805 94.9276C28.212 96.2119 30.3706 96.2119 31.7777 94.9276C33.334 93.4995 33.3767 91.0588 31.8683 89.5827L34.6452 92.3058C36.1695 93.8032 38.5999 93.8512 40.1882 92.4177C41.8618 90.9096 41.9897 88.3251 40.4707 86.6572C39.7938 85.9111 39.0316 85.0745 38.2268 84.1899C39.7991 85.2397 41.9257 85.1651 43.4287 83.8808C45.1982 82.3674 45.4487 79.7242 43.9937 77.9071V77.9018Z" fill="white"/>
<path d="M212.991 0.6875L121.334 24.2619V192.597L212.991 161.434V0.6875Z" fill="#00565E" stroke="#00565E" stroke-width="1.37009" stroke-linecap="round" stroke-linejoin="round"/>
<path d="M213.083 17.8359L136.334 37.6856V187.493" stroke="white" stroke-width="1.37009" stroke-linecap="round" stroke-linejoin="round"/>
<path d="M13.6152 84.543L19.3715 82.7521C21.9458 81.9527 24.7493 82.6296 26.6734 84.5163L34.6416 92.3298C36.1659 93.8274 38.5963 93.8754 40.1846 92.4417C41.8582 90.9333 41.9861 88.3484 40.4671 86.6802C36.3418 82.1499 29.0718 74.0859 29.0718 74.0859" stroke="#00565E" stroke-width="1.37009" stroke-linecap="round" stroke-linejoin="round"/>
<path d="M14.5918 91.2632L22.0376 90.6237L26.7919 94.9621C28.1989 96.2466 30.3575 96.2466 31.7646 94.9621C33.3209 93.5337 33.3636 91.0927 31.8552 89.6164L26.4134 84.2812" stroke="#00565E" stroke-width="1.37009" stroke-linecap="round" stroke-linejoin="round"/>
<path d="M28.4889 96.2789L28.361 124.634V143.418L1.29078 91.1578C-0.121624 87.1825 0.986982 82.7435 4.10494 79.8978L22.2211 63.3303C25.3816 60.442 30.3277 60.8257 32.998 64.1722L43.9828 77.9155C45.4378 79.7326 45.1873 82.3758 43.4178 83.8892C41.627 85.4239 38.9354 85.2374 37.3738 83.4682L29.0592 74.0733C27.2311 72.0057 24.1451 71.622 21.864 73.1728L18.1171 75.7253" stroke="#00565E" stroke-width="1.37009" stroke-linecap="round" stroke-linejoin="round"/>
<path d="M14.8066 70.0976L16.3949 58.2922C16.9386 55.4727 19.9393 53.2609 22.8068 53.3461L39.9903 54.9824C42.4633 55.2169 44.0996 57.6633 43.3694 60.035C42.8098 61.8578 41.0243 63.0143 39.1321 62.7798L28.4618 61.4474" stroke="#00565E" stroke-width="1.37009" stroke-linecap="round" stroke-linejoin="round"/>
<path d="M197.239 81.7324C198.743 83.0166 200.869 83.0912 202.441 82.0414C201.642 82.926 200.874 83.768 200.198 84.5087C198.679 86.1767 198.812 88.7559 200.48 90.2693C202.068 91.7028 204.493 91.6495 206.023 90.1574L208.8 87.4343C207.292 88.9157 207.334 91.3564 208.891 92.7792C210.298 94.0688 212.456 94.0688 213.863 92.7792L218.617 88.4415L212.691 93.5039L212.781 140.313L239.361 88.9957C240.774 85.015 239.665 80.5813 236.547 77.7357L225.845 67.9465L224.256 56.1429C223.713 53.3239 220.712 51.1124 217.845 51.1977L200.661 52.8337C198.188 53.0681 196.552 55.5141 197.282 57.8855C197.842 59.708 199.627 60.8643 201.519 60.6299L212.19 59.2976L212.243 59.3296C210.5 59.612 208.853 60.5126 207.659 62.0101L196.675 75.7533C195.219 77.5705 195.47 80.2136 197.239 81.727V81.7324Z" fill="white"/>
<path d="M212.787 140.249L239.367 88.9313C240.779 84.9559 239.67 80.5169 236.552 77.6713L218.436 61.1037C215.276 58.2154 210.33 58.5991 207.659 61.9457L196.675 75.6889C195.219 77.5061 195.47 80.1492 197.239 81.6626C199.03 83.1973 201.722 83.0108 203.284 81.2416L211.598 71.8468C213.426 69.7792 216.512 69.3955 218.793 70.9462L222.54 73.4987" stroke="#00565E" stroke-width="1.37009" stroke-linecap="round" stroke-linejoin="round"/>
<path d="M227.059 82.3555L221.303 80.5646C218.729 79.7652 215.925 80.4421 214.001 82.3288L206.033 90.1423C204.509 91.6399 202.078 91.6879 200.49 90.2542C198.816 88.7458 198.688 86.1609 200.207 84.4927C204.333 79.9624 211.603 71.8984 211.603 71.8984" stroke="#00565E" stroke-width="1.37009" stroke-linecap="round" stroke-linejoin="round"/>
<path d="M226.05 89.0758L218.604 88.4362L213.85 92.7746C212.442 94.0591 210.284 94.0591 208.877 92.7746C207.32 91.3462 207.278 88.9052 208.786 87.4289L214.228 82.0938" stroke="#00565E" stroke-width="1.37009" stroke-linecap="round" stroke-linejoin="round"/>
<path d="M212.779 93.9688L212.891 140.3" stroke="#00565E" stroke-width="1.37009" stroke-linecap="round" stroke-linejoin="round"/>
<path d="M225.834 67.9492L224.245 56.1437C223.702 53.3243 220.701 51.1124 217.833 51.1977L200.65 52.8339C198.177 53.0684 196.541 55.5148 197.271 57.8866C197.83 59.7093 199.616 60.8659 201.508 60.6314L212.178 59.299" stroke="#00565E" stroke-width="1.37009" stroke-linecap="round" stroke-linejoin="round"/>
<path d="M58.8691 8.42188V171.658" stroke="#00565E" stroke-width="1.37009" stroke-linecap="round" stroke-linejoin="round"/>
<path d="M91.7832 17.4844V182.644" stroke="#00565E" stroke-width="1.37009" stroke-linecap="round" stroke-linejoin="round"/>
<path d="M58.8691 42.7578V75.0456L91.7704 83.2588V50.9817L58.8691 42.7578Z" fill="#49DE71" stroke="#00565E" stroke-width="1.37009" stroke-linecap="round" stroke-linejoin="round"/>
<path d="M149.322 49.9097L203.122 37.7578" stroke="white" stroke-width="1.37009" stroke-linecap="round" stroke-linejoin="round"/>
<path d="M149.322 64.0006L189.419 54.9453" stroke="white" stroke-width="1.37009" stroke-linecap="round" stroke-linejoin="round"/>
<path d="M149.322 78.1022L189.419 69.0469" stroke="white" stroke-width="1.37009" stroke-linecap="round" stroke-linejoin="round"/>
<path d="M149.322 92.17L189.419 83.1094" stroke="white" stroke-width="1.37009" stroke-linecap="round" stroke-linejoin="round"/>
<path d="M149.322 107.378L189.419 97.2891" stroke="white" stroke-width="1.37009" stroke-linecap="round" stroke-linejoin="round"/>
<path d="M149.322 122.051L203.122 107.719" stroke="white" stroke-width="1.37009" stroke-linecap="round" stroke-linejoin="round"/>
<path d="M149.322 137.344L203.122 121.43" stroke="white" stroke-width="1.37009" stroke-linecap="round" stroke-linejoin="round"/>
<path d="M149.322 152.475L203.122 135.18" stroke="white" stroke-width="1.37009" stroke-linecap="round" stroke-linejoin="round"/>
<path d="M149.322 167.592L203.122 150.297" stroke="white" stroke-width="1.37009" stroke-linecap="round" stroke-linejoin="round"/>
<path d="M72.9023 70.4908C81.6166 72.9905 89.6114 71.0344 91.0025 66.195C92.3883 61.3556 86.648 55.4608 77.9284 52.9612C69.214 50.4615 61.022 52.3589 59.6362 57.1983C58.2505 62.0378 64.188 67.9911 72.9023 70.4908Z" fill="white" stroke="#00565E" stroke-width="1.37009" stroke-linecap="round" stroke-linejoin="round"/>
<path d="M90.9159 66.3505C92.0139 62.529 88.5654 58.1906 82.9797 56.5863C77.394 54.982 71.9789 56.7835 70.8809 60.605C69.783 64.4264 73.4233 68.8235 79.009 70.4224C84.5947 72.0267 89.818 70.1719 90.9106 66.3505H90.9159Z" fill="#00565E" stroke="#00565E" stroke-width="1.37009" stroke-linecap="round" stroke-linejoin="round"/>
</svg>
