<svg width="240" height="211" viewBox="0 0 240 211" fill="none" xmlns="http://www.w3.org/2000/svg">
<path d="M142.218 208.744C142.218 208.744 142.484 146.333 142.484 146.322C142.484 146.003 149.798 143.687 150.299 143.49C156.735 140.924 163.005 137.943 169.053 134.557C185.166 125.534 200.614 113.2 209.073 96.4157C218.713 77.2942 217.351 53.7544 205.767 35.852C200.55 27.7871 193.497 21.0424 185.539 15.7031C180.828 21.4736 175.371 27.1856 170.724 33.0093C177.453 40.5365 184.73 48.7611 186.795 58.769C188.52 67.116 186.87 76.2296 182.127 83.4853C176.596 91.9387 162.191 101.494 153.019 104.832C145.726 107.488 144.534 106.312 137.081 107.691C129.826 109.032 123.422 113.28 116.597 116.075C114.574 116.905 109.901 119.966 107.654 119.732L60.3782 114.377C60.3782 114.377 26.2773 118.577 26.2773 153.253V208.738H142.213L142.218 208.744Z" fill="#00565E" stroke="#00565E" stroke-width="3" stroke-linecap="round" stroke-linejoin="round"/>
<path d="M116.691 100.742H84.8789V132.554H116.691V100.742Z" fill="white" stroke="#00565E" stroke-width="3" stroke-linecap="round" stroke-linejoin="round"/>
<path d="M148.499 100.742H116.688V132.554H148.499V100.742Z" fill="white" stroke="#00565E" stroke-width="3" stroke-linecap="round" stroke-linejoin="round"/>
<path d="M26.2852 82.3281V114.14L53.0718 132.554V100.747L26.2852 82.3281Z" fill="#F5F1ED"/>
<path d="M84.8822 100.742H53.0703V132.554H84.8822V100.742Z" fill="white" stroke="#00565E" stroke-width="3" stroke-linecap="round" stroke-linejoin="round"/>
<path d="M53.0718 100.747L26.2852 82.3281H121.715L148.502 100.747" stroke="#00565E" stroke-width="3" stroke-linecap="round" stroke-linejoin="round"/>
<path d="M89.8984 82.3281L116.685 100.747" stroke="#00565E" stroke-width="3" stroke-linecap="round" stroke-linejoin="round"/>
<path d="M58.0938 82.3281L84.8804 100.747" stroke="#00565E" stroke-width="3" stroke-linecap="round" stroke-linejoin="round"/>
<path d="M53.0718 132.554L26.2852 114.14V82.3281" stroke="#00565E" stroke-width="3" stroke-linecap="round" stroke-linejoin="round"/>
<path d="M139.524 94.6016H44.0938V126.382" stroke="#00565E" stroke-width="3" stroke-linecap="round" stroke-linejoin="round"/>
<path d="M130.649 88.4609H35.2188V120.273" stroke="#00565E" stroke-width="3" stroke-linecap="round" stroke-linejoin="round"/>
<path d="M59.1867 115.051V114.098H60.8369V109.898L59.0749 111.112H59.043V109.914L61.0179 108.578H62.04V114.098H63.4453V115.051H59.1867Z" fill="#00565E"/>
<path d="M66.6611 115.149C66.1713 115.149 65.7455 115.069 65.3728 114.915C65.0055 114.761 64.7181 114.537 64.5158 114.25C64.3135 113.962 64.207 113.627 64.207 113.243C64.207 112.86 64.3135 112.541 64.5318 112.28C64.75 112.024 65.0375 111.822 65.3888 111.684V111.652C65.0907 111.519 64.8511 111.327 64.6755 111.077C64.4998 110.827 64.4093 110.545 64.4093 110.236C64.4093 109.89 64.4998 109.586 64.6861 109.325C64.8671 109.065 65.128 108.857 65.4686 108.708C65.804 108.559 66.2033 108.484 66.6611 108.484C67.1189 108.484 67.5234 108.559 67.8641 108.708C68.1995 108.857 68.4603 109.065 68.6413 109.325C68.8223 109.586 68.9128 109.89 68.9128 110.23C68.9128 110.539 68.8223 110.811 68.6466 111.045C68.471 111.279 68.2261 111.465 67.9173 111.593V111.625C68.2687 111.764 68.5561 111.971 68.7744 112.243C68.998 112.519 69.1044 112.844 69.1044 113.227C69.1044 113.611 69.0033 113.935 68.7957 114.228C68.5881 114.521 68.3059 114.739 67.9386 114.899C67.5713 115.059 67.1402 115.139 66.6504 115.139L66.6611 115.149ZM66.6611 114.164C67.0443 114.164 67.3531 114.074 67.582 113.888C67.8162 113.707 67.928 113.456 67.928 113.148C67.928 112.839 67.8109 112.594 67.582 112.408C67.3531 112.221 67.0443 112.131 66.6611 112.131C66.2778 112.131 65.969 112.221 65.7401 112.408C65.5112 112.589 65.3941 112.839 65.3941 113.148C65.3941 113.456 65.5112 113.701 65.7401 113.888C65.9744 114.069 66.2778 114.164 66.6611 114.164ZM66.6611 111.178C67.0017 111.178 67.2732 111.103 67.4702 110.949C67.6672 110.795 67.763 110.587 67.763 110.321C67.763 110.055 67.6618 109.842 67.4702 109.687C67.2732 109.533 67.0017 109.453 66.6611 109.453C66.3204 109.453 66.0542 109.533 65.8572 109.687C65.6603 109.847 65.5645 110.055 65.5645 110.321C65.5645 110.587 65.6603 110.795 65.8572 110.949C66.0489 111.103 66.3204 111.178 66.6611 111.178Z" fill="#00565E"/>
<path d="M66.101 100.285L37.2383 80.4453" stroke="#00565E" stroke-width="3" stroke-linecap="round" stroke-linejoin="round"/>
<path d="M100.469 85.0789L126.622 73.3516V104.317L100.469 116.039V85.0789Z" fill="white" stroke="#00565E" stroke-width="3" stroke-linecap="round" stroke-linejoin="round"/>
<path d="M126.617 73.347L151.865 61.625V92.5909L126.617 104.313V73.347Z" fill="white" stroke="#00565E" stroke-width="3" stroke-linecap="round" stroke-linejoin="round"/>
<path d="M151.867 61.6961L178.925 49.9688V80.9347L151.867 92.6567V61.6961Z" fill="white" stroke="#00565E" stroke-width="3" stroke-linecap="round" stroke-linejoin="round"/>
<path d="M100.47 85.0789L74.3164 73.3516V104.317L100.47 116.039V85.0789Z" fill="white" stroke="#00565E" stroke-width="3" stroke-linecap="round" stroke-linejoin="round"/>
<path d="M148.5 39.5625L178.928 49.597" stroke="#00565E" stroke-width="3" stroke-linecap="round" stroke-linejoin="round"/>
<path d="M74.3147 73.4173L49.0664 61.6953V92.6559L74.3147 104.378V73.4173Z" fill="white" stroke="#00565E" stroke-width="3" stroke-linecap="round" stroke-linejoin="round"/>
<path d="M49.0661 61.6961L23.8125 49.9688V80.9347L49.0661 92.6567V61.6961Z" fill="white" stroke="#00565E" stroke-width="3" stroke-linecap="round" stroke-linejoin="round"/>
<path d="M116.691 31.4844H84.8789V63.2967H116.691V31.4844Z" fill="white" stroke="#00565E" stroke-width="3" stroke-linecap="round" stroke-linejoin="round"/>
<path d="M148.499 31.4844H116.688V63.2967H148.499V31.4844Z" fill="white" stroke="#00565E" stroke-width="3" stroke-linecap="round" stroke-linejoin="round"/>
<path d="M26.2852 13.0625V44.8695L53.0718 63.2883V31.476L26.2852 13.0625Z" fill="#F5F1ED"/>
<path d="M84.8822 31.4844H53.0703V63.2967H84.8822V31.4844Z" fill="#49DE71" stroke="#00565E" stroke-width="3" stroke-linecap="round" stroke-linejoin="round"/>
<path d="M53.0718 31.476L26.2852 13.0625H121.715L148.502 31.476" stroke="#00565E" stroke-width="3" stroke-linecap="round" stroke-linejoin="round"/>
<path d="M89.8984 13.0625L116.685 31.476" stroke="#00565E" stroke-width="3" stroke-linecap="round" stroke-linejoin="round"/>
<path d="M58.0938 13.0625L84.8804 31.476" stroke="#00565E" stroke-width="3" stroke-linecap="round" stroke-linejoin="round"/>
<path d="M53.0718 63.2883L26.2852 44.8695V13.0625" stroke="#00565E" stroke-width="3" stroke-linecap="round" stroke-linejoin="round"/>
<path d="M139.524 25.3438H44.0938V57.1241" stroke="#00565E" stroke-width="3" stroke-linecap="round" stroke-linejoin="round"/>
<path d="M130.649 19.2031H35.2188V51.0154" stroke="#00565E" stroke-width="3" stroke-linecap="round" stroke-linejoin="round"/>
<path d="M53.0703 63.2969L100.469 85.08L148.501 63.2969H53.0703Z" fill="#00565E"/>
<path d="M23.8125 49.9722L31.8773 48.7266L49.0661 61.6996L23.8125 49.9722Z" fill="#00565E" stroke="#00565E" stroke-width="3" stroke-linecap="round" stroke-linejoin="round"/>
<path d="M148.5 39.5625V63.2886L178.928 49.9643L148.5 39.5625Z" fill="#00565E" stroke="#00565E" stroke-width="3" stroke-linecap="round" stroke-linejoin="round"/>
<path d="M26.2852 82.3281L53.0718 100.747L66.726 100.859L26.2852 82.3281Z" fill="#00565E"/>
<path d="M134.82 100.512L148.501 100.746L142.784 96.8125L134.82 100.512Z" fill="#00565E"/>
<path d="M59.3711 153.828V208.749" stroke="white" stroke-width="3" stroke-linecap="round" stroke-linejoin="round"/>
<path d="M117.508 145.047C117.508 145.047 127.478 152.239 142.485 146.33" stroke="white" stroke-width="3" stroke-linecap="round" stroke-linejoin="round"/>
<path d="M188.995 18.8255L162.581 2.52541C159.967 0.912437 156.597 1.22651 154.324 3.2973L138.03 18.1601C136.156 19.8689 136.321 22.8712 138.37 24.3671C139.941 25.5116 142.113 25.3626 143.513 24.0158L155.16 12.8048L147.526 20.1563C146.073 21.5564 146.169 23.9199 147.739 25.1869C149.091 26.2835 151.061 26.1664 152.275 24.9101L160.382 16.5045L154.899 22.1898C153.419 23.723 153.712 26.2249 155.501 27.3748C156.911 28.2851 158.774 28.0189 159.876 26.7573L166.003 19.7305L161.995 24.3298C160.659 25.863 161.01 28.2212 162.73 29.3018C164.172 30.2068 166.067 29.8661 167.105 28.5193L170.033 24.7238L175.127 31.4844" stroke="#00565E" stroke-width="3" stroke-linecap="round" stroke-linejoin="round"/>
<path d="M67.0195 19.2031L75.9467 25.3409H107.758L98.8314 19.2031H67.0195Z" fill="#00565E"/>
<path d="M59.6902 90.8657L57.2148 89.439V75.0234L67.2865 80.8365V82.9712L59.6902 78.5847V82.5347L66.7701 86.623V88.7577L59.6902 84.6693V90.8604V90.8657Z" fill="#00565E"/>
</svg>
